<?xml version="1.0" encoding="UTF-8"?>
<svg id="Capa_2" data-name="Capa 2" xmlns="http://www.w3.org/2000/svg" viewBox="0 0 1279.76 662.5">
  <defs>
    <style>
      .cls-1 {
        fill: #e4032e;
        stroke-width: 0px;
      }
    </style>
  </defs>
  <g id="Capa_1-2" data-name="Capa 1">
    <g>
      <polygon class="cls-1" points="952.5 282 952.5 81.4 972.1 81.4 972.67 103.71 975.89 105.33 975.89 115.1 980.74 115.01 980.74 141.63 983.96 142.44 983.96 172.11 987.19 171.48 987.19 166.37 995.26 166.64 995.26 139.48 998.48 139.21 998.48 132.31 1027.53 132.76 1027.53 190.39 1032.37 190.84 1032.37 211.9 1038.82 211.82 1038.82 233.06 1043.66 232.79 1043.66 256.72 1048.5 256.99 1048.5 280.39 952.5 282"/>
      <path class="cls-1" d="m627.06,262.05c-.58-5.56-.42-15.2,10.22-33.59,10.28-17.76,23.37-40.37,40.89-39.43,6.31.34,10.89,3.61,16.06,7.3,3.5,2.5,9.02,7.15,21.91,30.67,6.78,12.38,10.2,18.7,11.68,24.83,3.53,14.6,1.66,30.21-1.46,30.67-.06,0-.13.01-.19,0-4.44-.57-20.32-53.97-24.63-61.34-3.77-6.45-13.95-23.88-26.29-23.37-11.58.48-19.38,16.52-24.83,27.75-13.97,28.81-11.27,53.77-16.06,54.04-3,.17-6.46-9.49-7.3-17.53Z"/>
      <path class="cls-1" d="m803,246.66h12.19v-1.53h6.39v2.66l3,.07V114.6h3.66l-.07-4.6h22.71v4.6l4.86.2v84.51c2.8-.2,5.59-.4,8.39-.6v3l9.59-.6v80.78h-70.73v-35.23Z"/>
      <polygon class="cls-1" points="796.59 176.98 790.52 176.98 790.52 181.72 786.66 180.95 786.66 185.26 782.68 184.93 760.82 173 760.82 179.13 772.74 184.93 760.82 185.26 760.82 190.12 783.01 190.12 782.68 192.88 760.82 192.88 760.82 197.63 783.31 197.63 782.68 200.83 760.82 200.83 760.82 204.99 783.31 204.99 782.68 208.78 760.82 208.78 760.82 212.75 782.68 212.75 780.69 216.73 758.42 216.73 758.42 220.89 784.48 220.89 782.68 224.68 755.04 224.68 755.04 228.69 784.93 228.69 782.68 232.63 752.68 232.63 752.68 236.35 784.78 236.35 782.68 240.58 749.29 240.58 749.29 244.45 784.63 244.45 782.68 248.53 745.17 248.53 745.17 252.69 784.63 252.69 782.68 256.48 741.05 256.48 741.05 260.94 784.63 260.94 780.69 264.43 736.34 264.43 736.34 269.03 784.48 269.03 780.69 274.37 731 274.37 731 280.67 801.12 280.67 800.57 176.98 796.59 176.98"/>
      <path class="cls-1" d="m912.41,203v8.38h-2.63v5.25h-2.75v3h-2v19.66h-3.41v6.75l-1.72-.03v9.88h-8.41v1.97h-3.38c.05.59.1,1.19.16,1.78h-10.29v3.28l-3.38.22v18.35h76.62v-18.35l-3.38-.22v-3.28h-10.29c.05-.59.1-1.19.16-1.78h-3.38v-1.97h-8.41v-9.88l-1.72.03v-6.75h-3.41v-19.66h-2v-3h-2.75v-5.25h-2.63v-8.38"/>
      <g>
        <polygon class="cls-1" points="1255.68 0 1255.68 11.37 1251.38 11.37 1251.38 29.08 1246.95 29.08 1246.95 44.58 1242.77 44.58 1242.77 48.51 1240.07 48.51 1240.07 52.69 1236.38 52.69 1236.38 57.12 1231.71 57.12 1231.61 60.59 1223.59 60.59 1223.59 87.13 1223.31 110.4 1219.65 110.4 1219.65 122.05 1215.01 122.02 1215.01 129.18 1212.28 129.18 1211.69 133.64 1206.86 133.64 1205.05 136.96 1205.05 140.74 1199.98 140.74 1195.09 145.26 1195.09 148.86 1190.88 148.86 1183.47 158.54 1183.47 161.65 1171.85 161.86 1171.85 165.83 1168.01 165.83 1160.23 173.48 1160.23 185.01 1155.71 185.01 1155.71 196.08 1143.63 206.68 1143.63 210.59 1139.72 210.59 1139.72 213.05 1131.36 213.05 1131.36 216.74 1098.8 216.65 1098.8 221.16 1092.01 221.16 1080.54 228.27 1078.88 233.25 1071.35 233.25 1071.35 241.58 1067.26 241.55 1067.26 245.76 1063.23 245.76 1063.23 248.71 1058.96 248.19 1058.96 254.12 1055.64 254.83 1052.32 256.49 1052.32 260.76 1049 261.47 1049 281.67 1279.76 281.39 1279.76 56.87 1274.78 57.27 1274.78 48.97 1268.14 48.97 1268.14 29.05 1264.82 29.05 1264.82 10.79 1259.83 10.79 1259.99 0 1255.68 0"/>
        <line class="cls-1" x1="1224.14" y1="87.99" x2="1104.61" y2="217.48"/>
      </g>
      <rect class="cls-1" y="280.5" width="1279" height="382"/>
    </g>
  </g>
</svg>