<svg id="Map--Streamline-Carbon.svg" xmlns="http://www.w3.org/2000/svg" viewBox="-0.5 -0.5 16 16" height="16" width="16"><desc>Map Streamline Icon: https://streamlinehq.com</desc><defs></defs><title>map</title><path d="m7.5 11.25 -2.8546875 -4.03125A3.8156250000000003 3.8156250000000003 0 0 1 7.5 0.9375a3.7875 3.7875 0 0 1 3.75 3.8109375000000005 3.8437499999999996 3.8437499999999996 0 0 1 -0.84375 2.4046875Zm0 -9.375a2.8453125000000004 2.8453125000000004 0 0 0 -2.8125 2.8734375 2.9015625000000003 2.9015625000000003 0 0 0 0.6984375 1.875L7.5 9.61875 9.6703125 6.5625A2.9250000000000003 2.9250000000000003 0 0 0 10.3125 4.7484375000000005 2.8453125000000004 2.8453125000000004 0 0 0 7.5 1.875Z" stroke-width="1"></path><path d="M6.5625 4.21875a0.9375 0.9375 0 1 0 1.875 0 0.9375 0.9375 0 1 0 -1.875 0" stroke-width="1"></path><path d="M13.125 5.625h-0.9375v0.9375h0.9375v6.5625H1.875V6.5625h0.9375v-0.9375H1.875a0.9375 0.9375 0 0 0 -0.9375 0.9375v6.5625a0.9375 0.9375 0 0 0 0.9375 0.9375h11.25a0.9375 0.9375 0 0 0 0.9375 -0.9375V6.5625a0.9375 0.9375 0 0 0 -0.9375 -0.9375Z" stroke-width="1"></path><path id="_Transparent_Rectangle_" d="M0 0h15v15H0Z" fill="none" stroke-width="1"></path></svg>